<?xml version="1.0" encoding="UTF-8" standalone="no"?>
<svg
   viewBox="0 0 79.404083 55.629314"
   version="1.1"
   id="svg10"
   sodipodi:docname="icon_melon.svg"
   inkscape:version="1.1.1 (3bf5ae0d25, 2021-09-20)"
   width="79.404083"
   height="55.629314"
   xmlns:inkscape="http://www.inkscape.org/namespaces/inkscape"
   xmlns:sodipodi="http://sodipodi.sourceforge.net/DTD/sodipodi-0.dtd"
   xmlns="http://www.w3.org/2000/svg"
   xmlns:svg="http://www.w3.org/2000/svg">
  <defs
     id="defs14" />
  <sodipodi:namedview
     id="namedview12"
     pagecolor="#ffffff"
     bordercolor="#666666"
     borderopacity="1.0"
     inkscape:pageshadow="2"
     inkscape:pageopacity="0.0"
     inkscape:pagecheckerboard="0"
     showgrid="false"
     inkscape:zoom="6.0624998"
     inkscape:cx="14.927835"
     inkscape:cy="17.731959"
     inkscape:window-width="2560"
     inkscape:window-height="1377"
     inkscape:window-x="-8"
     inkscape:window-y="-8"
     inkscape:window-maximized="1"
     inkscape:current-layer="svg10"
     fit-margin-top="0"
     fit-margin-left="0"
     fit-margin-right="0"
     fit-margin-bottom="0" />
  <path
     fill="#FFE8B6"
     d="M 11.776842,2.9654938 C 10.055521,6.8036552 9.0889188,11.033301 9.0889188,15.486941 c 0,17.3363 14.4566702,31.391398 32.2873722,31.391398 13.932001,0 25.76936,-8.596513 30.295646,-20.619524 C 70.929669,21.805207 20.271688,-0.08605267 11.776842,2.9654938 Z"
     id="path4"
     style="fill:none;stroke:#ffffff;stroke-width:2.01796;stroke-opacity:1"
     sodipodi:nodetypes="csscc" />
  <path
     id="path2"
     style="fill:#ffffff;stroke-width:2.27728"
     d="M 3.3515625,0 C 1.2018135,4.8414903 0,10.170689 0,15.777344 c 0,22.00988 18.351826,39.851562 40.990234,39.851562 17.639785,0 32.634335,-10.854513 38.414063,-26.050781 0,-2.803431 -2.193079,-2.815482 -4.224609,-1.642578 -5.108409,13.567124 -18.467793,23.267578 -34.189454,23.267578 -20.122017,0 -36.4355465,-15.861698 -36.4355465,-35.425781 0,-5.02595 1.0906861,-9.7994794 3.0332031,-14.1308596 C 7.5878906,-0.95374398 4.8823428,-1.5307803 3.3515625,0 Z"
     sodipodi:nodetypes="cssccsscc" />
  <path
     d="m 20.304199,17.546417 c -0.699124,1.047547 -1.687462,1.612311 -2.211236,1.263888 -0.523773,-0.348423 -0.382582,-1.477952 0.316542,-2.525499 0.699124,-1.047548 1.687462,-1.612312 2.211236,-1.263889 0.523773,0.348423 0.382582,1.477953 -0.316542,2.5255 z m 13.66366,2.277276 c -0.699124,1.047547 -1.687462,1.612312 -2.211235,1.263889 -0.523774,-0.348423 -0.382583,-1.477953 0.316541,-2.5255 0.699124,-1.047547 1.687462,-1.612312 2.211236,-1.263888 0.523773,0.348423 0.382582,1.477952 -0.316542,2.525499 z m 11.57312,10.6531 c 0.113864,1.25478 -0.3006,2.313714 -0.924574,2.370645 -0.626251,0.05693 -1.225175,-0.91091 -1.339039,-2.16569 -0.116141,-1.254779 0.300601,-2.313713 0.924575,-2.368367 0.626251,-0.05921 1.225175,0.906356 1.339038,2.163412 z M 25.045489,25.92224 c 0.113864,1.25478 -0.3006,2.313713 -0.924574,2.370645 -0.626251,0.05693 -1.225175,-0.910911 -1.339039,-2.16569 -0.113864,-1.254779 0.300601,-2.313713 0.924574,-2.368368 0.628529,-0.05921 1.225175,0.906356 1.339039,2.163413 z m 8.883657,12.174321 c -0.758334,1.004279 -1.776276,1.509835 -2.277277,1.131807 -0.503278,-0.378028 -0.293769,-1.498448 0.466842,-2.502727 0.758333,-1.004279 1.778553,-1.509835 2.277276,-1.131807 0.503278,0.378028 0.296046,1.496171 -0.466841,2.502727 z m 18.300195,1.033884 c 0.621697,1.09537 0.680906,2.229454 0.136637,2.539164 -0.548824,0.311987 -1.493894,-0.325651 -2.11559,-1.42102 -0.621697,-1.093094 -0.680906,-2.229455 -0.13436,-2.539164 0.548824,-0.314264 1.491617,0.321096 2.113313,1.42102 z M 36.249691,27.680298 c 0.690014,1.05438 0.824374,2.181632 0.298323,2.5255 -0.526051,0.346147 -1.509835,-0.227728 -2.199849,-1.279829 -0.690015,-1.052103 -0.822097,-2.181632 -0.298324,-2.523223 0.526051,-0.350701 1.509835,0.220895 2.19985,1.277552 z m 20.452221,3.584434 c -0.758333,1.004278 -1.776275,1.509834 -2.279553,1.131806 -0.503279,-0.378028 -0.293769,-1.498447 0.466841,-2.502727 0.758333,-1.006557 1.776276,-1.509834 2.277277,-1.131806 0.505555,0.378028 0.298323,1.49617 -0.464565,2.502727 z"
     id="path8"
     style="fill:#ffffff;stroke-width:2.27728" />
</svg>
